<svg width="156" height="40" viewBox="0 0 156 40" fill="none" xmlns="http://www.w3.org/2000/svg">
<path d="M0 26.9165V8.44988H4.1037V10.9867C4.60111 10.2655 5.17314 9.68099 5.81979 9.23331C6.46643 8.7732 7.15038 8.43744 7.87164 8.22604C8.59289 8.0022 9.32658 7.89028 10.0727 7.89028C11.5774 7.89028 12.8272 8.21982 13.822 8.8789C14.8293 9.53798 15.5381 10.3836 15.9485 11.4157C16.8687 10.0727 17.9381 9.15248 19.1568 8.65506C20.3755 8.14521 21.6004 7.89028 22.8315 7.89028C24.5351 7.89028 25.8968 8.22604 26.9165 8.89756C27.9362 9.56907 28.6699 10.4333 29.1176 11.4903C29.5777 12.5474 29.8078 13.6355 29.8078 14.7546V26.9165H25.7041V15.9484C25.7041 14.6676 25.3497 13.6355 24.6408 12.852C23.9445 12.0562 22.9247 11.6582 21.5817 11.6582C20.6988 11.6582 19.9091 11.851 19.2128 12.2365C18.5164 12.622 17.963 13.1567 17.5526 13.8406C17.1547 14.5122 16.9557 15.2894 16.9557 16.1723V26.9165H12.852V15.9484C12.852 14.6676 12.5038 13.6355 11.8075 12.852C11.1111 12.0562 10.0851 11.6582 8.72968 11.6582C7.8592 11.6582 7.06955 11.851 6.36073 12.2365C5.66435 12.622 5.11097 13.1567 4.7006 13.8406C4.30266 14.5122 4.1037 15.2894 4.1037 16.1723V26.9165H0Z" fill="black"/>
<path d="M67.8696 27.4761C65.9421 27.4761 64.2197 27.0346 62.7026 26.1517C61.1979 25.2564 60.0166 24.0688 59.1585 22.589C58.3005 21.0967 57.8715 19.4615 57.8715 17.6832C57.8715 16.365 58.1139 15.1215 58.5989 13.9526C59.0963 12.7712 59.7927 11.7266 60.6881 10.8188C61.5959 9.91104 62.6591 9.196 63.8778 8.67372C65.0964 8.15143 66.4333 7.89028 67.8882 7.89028C69.8157 7.89028 71.5318 8.33796 73.0365 9.23331C74.5536 10.1162 75.7412 11.3038 76.5992 12.7961C77.4573 14.2759 77.8863 15.9049 77.8863 17.6832C77.8863 18.9889 77.6376 20.2325 77.1402 21.4138C76.6552 22.5952 75.965 23.6398 75.0697 24.5476C74.1743 25.4553 73.1173 26.1704 71.8986 26.6927C70.68 27.215 69.3369 27.4761 67.8696 27.4761ZM67.8696 23.8387C69.0136 23.8387 70.0271 23.59 70.91 23.0926C71.8054 22.5828 72.508 21.8677 73.0178 20.9475C73.5277 20.0273 73.7826 18.9392 73.7826 17.6832C73.7826 16.4272 73.5277 15.3391 73.0178 14.4189C72.508 13.4862 71.8054 12.7712 70.91 12.2738C70.0271 11.7764 69.0136 11.5276 67.8696 11.5276C66.7255 11.5276 65.7058 11.7764 64.8104 12.2738C63.9275 12.7712 63.2311 13.4862 62.7213 14.4189C62.2239 15.3391 61.9751 16.4272 61.9751 17.6832C61.9751 18.9392 62.2301 20.0273 62.7399 20.9475C63.2498 21.8677 63.9462 22.5828 64.8291 23.0926C65.7244 23.59 66.7379 23.8387 67.8696 23.8387Z" fill="black"/>
<path d="M82.0084 26.9165V8.44988H86.1121V11.0054C86.8084 9.84887 87.654 9.04056 88.6489 8.58045C89.6437 8.1079 90.7132 7.87163 91.8572 7.87163C92.2303 7.87163 92.5847 7.89028 92.9205 7.92759C93.2562 7.9649 93.5795 8.02085 93.8904 8.09547L93.3495 12.3297C92.9764 12.2178 92.5971 12.1308 92.2116 12.0686C91.8261 12.0064 91.4406 11.9753 91.0551 11.9753C89.6251 11.9753 88.4437 12.4168 87.511 13.2997C86.5784 14.1702 86.1121 15.3578 86.1121 16.8625V26.9165H82.0084Z" fill="black"/>
<path d="M96.1947 27.4761C95.3988 27.4761 94.7086 27.2212 94.1242 26.7113C93.5521 26.2015 93.2661 25.5362 93.2661 24.7154C93.2661 24.1558 93.3967 23.6709 93.6578 23.2605C93.919 22.8377 94.2734 22.5144 94.7211 22.2905C95.1688 22.0542 95.66 21.9361 96.1947 21.9361C97.003 21.9361 97.6869 22.191 98.2465 22.7009C98.8186 23.1983 99.1046 23.8698 99.1046 24.7154C99.1046 25.2626 98.974 25.7476 98.7129 26.1704C98.4517 26.5807 98.0973 26.8978 97.6496 27.1217C97.2144 27.358 96.7294 27.4761 96.1947 27.4761Z" fill="black"/>
<path d="M104.05 26.9165V8.44988H108.153V26.9165H104.05ZM106.102 5.14827C105.368 5.14827 104.734 4.912 104.199 4.43945C103.664 3.9669 103.397 3.34513 103.397 2.57414C103.397 1.81557 103.664 1.20002 104.199 0.727474C104.734 0.242491 105.368 0 106.102 0C106.835 0 107.469 0.242491 108.004 0.727474C108.539 1.20002 108.806 1.81557 108.806 2.57414C108.806 3.34513 108.539 3.9669 108.004 4.43945C107.469 4.912 106.835 5.14827 106.102 5.14827Z" fill="black"/>
<path d="M113.85 26.9165V8.44988H117.954V10.8002C118.725 9.76803 119.62 9.02813 120.64 8.58045C121.659 8.12034 122.716 7.89028 123.811 7.89028C125.502 7.89028 126.901 8.22604 128.008 8.89756C129.114 9.56907 129.935 10.4333 130.47 11.4903C131.017 12.5474 131.291 13.6355 131.291 14.7546V26.9165H127.187V16.0231C127.187 14.7049 126.789 13.6479 125.993 12.852C125.21 12.0562 124.115 11.6582 122.71 11.6582C121.79 11.6582 120.969 11.8634 120.248 12.2738C119.539 12.6841 118.98 13.2562 118.569 13.9899C118.159 14.7111 117.954 15.5567 117.954 16.5267V26.9165H113.85Z" fill="black"/>
<path d="M144.077 35.3104C142.696 35.3104 141.453 35.1861 140.346 34.9374C139.239 34.7011 138.294 34.3529 137.511 33.8928C136.74 33.4327 136.149 32.8793 135.739 32.2327C135.328 31.586 135.123 30.8647 135.123 30.0689C135.123 29.4347 135.291 28.8378 135.627 28.2782C135.975 27.7186 136.485 27.2398 137.156 26.8419C137.84 26.4315 138.674 26.1268 139.656 25.9279C138.922 25.5548 138.375 25.132 138.014 24.6595C137.666 24.1869 137.492 23.646 137.492 23.0366C137.492 22.5144 137.641 22.0232 137.94 21.563C138.251 21.0905 138.686 20.6739 139.246 20.3133C139.818 19.9402 140.489 19.6356 141.26 19.3993C142.031 19.163 142.883 19.0262 143.816 18.9889L144.711 20.7796C143.94 20.7672 143.281 20.8294 142.734 20.9661C142.199 21.0905 141.782 21.2708 141.484 21.5071C141.198 21.7309 141.055 22.0045 141.055 22.3278C141.055 22.7506 141.297 23.0615 141.782 23.2605C142.267 23.447 142.951 23.5776 143.834 23.6522L147.005 23.8947C148.56 24.019 149.884 24.274 150.978 24.6595C152.085 25.045 152.931 25.5859 153.515 26.2823C154.112 26.9787 154.411 27.8616 154.411 28.931C154.411 29.8388 154.162 30.6782 153.665 31.4492C153.18 32.2326 152.477 32.9104 151.557 33.4824C150.649 34.0544 149.561 34.5021 148.292 34.8254C147.024 35.1488 145.619 35.3104 144.077 35.3104ZM144.487 32.4751C146.34 32.4751 147.795 32.1953 148.852 31.6357C149.921 31.0886 150.456 30.3736 150.456 29.4906C150.456 28.8191 150.102 28.2968 149.393 27.9238C148.684 27.5507 147.602 27.3144 146.147 27.215L142.752 26.9538C141.957 27.016 141.266 27.1652 140.682 27.4015C140.11 27.6378 139.675 27.9424 139.376 28.3155C139.078 28.6885 138.928 29.1114 138.928 29.5839C138.928 30.1559 139.152 30.6596 139.6 31.0948C140.048 31.53 140.688 31.8658 141.521 32.1021C142.354 32.3508 143.343 32.4751 144.487 32.4751ZM144.357 21.0594C142.815 21.0594 141.428 20.7672 140.197 20.1827C138.978 19.5982 138.014 18.8086 137.306 17.8138C136.597 16.8189 136.242 15.706 136.242 14.4748C136.242 13.2437 136.597 12.1308 137.306 11.1359C138.027 10.1411 138.997 9.35145 140.216 8.76698C141.447 8.18252 142.827 7.89028 144.357 7.89028C145.886 7.89028 147.26 8.18252 148.479 8.76698C149.698 9.35145 150.661 10.1411 151.37 11.1359C152.091 12.1308 152.452 13.2437 152.452 14.4748C152.452 15.6935 152.098 16.8003 151.389 17.7951C150.68 18.7899 149.716 19.5858 148.498 20.1827C147.279 20.7672 145.899 21.0594 144.357 21.0594ZM144.357 17.9816C145.202 17.9816 145.955 17.8386 146.614 17.5526C147.273 17.2542 147.789 16.8438 148.162 16.3215C148.535 15.7868 148.721 15.1712 148.721 14.4748C148.721 13.4303 148.311 12.5847 147.49 11.938C146.682 11.2789 145.637 10.9494 144.357 10.9494C143.499 10.9494 142.74 11.0986 142.081 11.3971C141.434 11.6955 140.924 12.1121 140.551 12.6468C140.178 13.1691 139.992 13.7785 139.992 14.4748C139.992 15.507 140.396 16.3526 141.204 17.0117C142.025 17.6583 143.076 17.9816 144.357 17.9816ZM147.229 11.6955L145.7 8.84159L155.604 8.44988L155.567 11.8448L147.229 11.6955Z" fill="black"/>
<path fill-rule="evenodd" clip-rule="evenodd" d="M43.7847 7.875C49.508 7.875 54.1476 12.5146 54.1476 18.2379C54.1476 23.2182 50.6339 27.376 45.9504 28.372C44.821 28.6007 43.9001 29.2886 43.9001 29.8981C43.9011 30.7261 46.8268 33.8113 46.8268 36.9882C46.8268 38.6359 45.359 39.9995 43.8151 39.9999C42.305 39.9997 40.7427 38.7238 40.7427 36.9882C40.7427 33.679 43.6684 30.726 43.6694 29.8981C43.6694 29.2883 42.7485 28.6007 41.617 28.372C36.9346 27.3753 33.4219 23.2175 33.4219 18.2379C33.4219 12.5146 38.0615 7.875 43.7847 7.875ZM43.7847 12.0201C40.3508 12.0201 37.567 14.8039 37.567 18.2379C37.567 21.6718 40.3508 24.4556 43.7847 24.4556C47.2187 24.4556 50.0025 21.6718 50.0025 18.2379C50.0025 14.8039 47.2187 12.0201 43.7847 12.0201Z" fill="#00A7E6"/>
</svg>
